<svg xmlns="http://www.w3.org/2000/svg" viewBox="0 0 237.04 47.1"><defs><style>.cls-1{fill:#fff;}.cls-2{isolation:isolate;}</style></defs><title>Element 1</title><g id="Ebene_2" data-name="Ebene 2"><g id="Ebene_1-2" data-name="Ebene 1"><path class="cls-1" d="M54.74,24.8,33.94,24V19.3l18.8-.7c-2.2-3.6-6-5.8-9.8-4.5C45.14-2.7,24-2.3,20.74,7.9,18,4.8,5.24,5.3,8.64,18c-9-.4-13.5,14.9-.7,18,0,0,37.2.5,37.5-.1C52.44,33.8,54.94,29.2,54.74,24.8Zm-22.8-.6a4.63,4.63,0,0,0-3.3.6,3.31,3.31,0,0,0,.3,5.2,4.92,4.92,0,0,1-.3,3.4h-6a7.39,7.39,0,0,1-.2-3.3c2.9-2.6-.1-5.1-.1-5.1V17.7a11.94,11.94,0,0,1,6.2-11.2c1.9-1.1,5.1-.9,1.7,2-8.1,7.8,1.7,10.4,1.7,10.4Z"/><g class="cls-2"><path class="cls-1" d="M86.54,23.4H63.34c.3,6.5,4.8,10.8,11,10.8a11.82,11.82,0,0,0,9-3.7l1.2,1.4a13.7,13.7,0,0,1-10.3,4.2c-7.5,0-13-5.5-13-13.3s5.5-13.4,13-13.4C82,9.5,86.74,15.2,86.54,23.4Zm-1.9-1.9c-.4-6-4.3-10.1-10.4-10.1s-10.3,4.1-10.8,10.1Z"/><path class="cls-1" d="M136.34,19.9V36.2h-2.1V20.3c0-5.5-3.2-8.7-8.5-8.7-6.4.2-10.1,4.6-10.1,11.5v13h-2.1V20.3c0-5.5-3.2-8.7-8.5-8.7-6.4.2-10.2,4.6-10.2,11.5v13h-2.1V9.5h2.1v7c1.7-4.6,5.5-7,10.7-7.1,5.4,0,8.9,2.9,9.8,7.7,1.6-5,5.4-7.6,10.9-7.7C132.64,9.5,136.34,13.4,136.34,19.9Z"/><path class="cls-1" d="M161.84,36.2l-.1-5.3c-2.2,3.7-6,5.3-10.6,5.3-5.3,0-8.8-3.3-8.8-7.8s3.8-7.2,9.9-7.2h9.5V18.6c-.1-4.5-2.7-7.2-8-7.2-3.3,0-6.1,1.3-8.9,3.5l-1-1.6c3.2-2.3,6.2-3.8,10.3-3.8,6.3,0,9.7,3.5,9.8,9l.1,17.7Zm-.1-8.7V23.2h-9.3c-5.2,0-8.1,1.8-8.1,5.2s2.7,5.9,7.1,5.9C156.34,34.3,160.14,32.1,161.74,27.5Z"/><path class="cls-1" d="M195.54,19.9V36.2h-2.1V20.3c0-5.5-3.2-8.7-8.7-8.7-6.1.2-9.9,4-10.4,10.1V36.1h-2.1V9.5h2.1v6.8c1.8-4.4,5.6-6.8,10.9-6.9C191.74,9.5,195.54,13.4,195.54,19.9Z"/><path class="cls-1" d="M199.14,46.1a9.25,9.25,0,0,1-5.3-1.9l.9-1.8A6.93,6.93,0,0,0,199,44c2.9.1,4.5-2.1,4.5-6.3V9.5h2.1v28C205.74,43.3,203.14,46.1,199.14,46.1Zm7.4-44.3a1.8,1.8,0,1,1-3.6,0,1.8,1.8,0,1,1,3.6,0Z"/><path class="cls-1" d="M237,9.5V36.1h-2.1V29c-1.7,4.6-5.4,7.1-10.7,7.2-6.4,0-10.2-3.9-10.2-10.4V9.5h2.1V25.4c0,5.5,3.2,8.7,8.5,8.7,6.4-.2,10.2-4.6,10.2-11.5V9.6H237Z"/></g><g class="cls-2"><path class="cls-1" d="M66.14,42.8a2.76,2.76,0,0,1-2.9,2.8H61V40.1h2.2A2.74,2.74,0,0,1,66.14,42.8Zm-.7,0a2.22,2.22,0,0,0-2.2-2.2h-1.6V45h1.6A2.1,2.1,0,0,0,65.44,42.8Z"/><path class="cls-1" d="M67.84,40.2a.4.4,0,1,1-.4-.4A.43.43,0,0,1,67.84,40.2Zm-.1,1.2v4.2h-.6V41.4Z"/><path class="cls-1" d="M72.74,41.4v3.7a1.92,1.92,0,0,1-2.1,2,2.52,2.52,0,0,1-1.7-.6l.3-.5a2.17,2.17,0,0,0,1.4.5,1.39,1.39,0,0,0,1.5-1.4v-.6a1.55,1.55,0,0,1-1.5.9,2,2,0,0,1,0-4,1.55,1.55,0,0,1,1.5.9v-.8h.6Zm-.6,2a1.4,1.4,0,1,0-1.4,1.5A1.39,1.39,0,0,0,72.14,43.4Z"/><path class="cls-1" d="M74.74,40.2a.4.4,0,1,1-.4-.4A.37.37,0,0,1,74.74,40.2Zm-.1,1.2v4.2H74V41.4Z"/><path class="cls-1" d="M78.24,45.3a1.61,1.61,0,0,1-.9.3,1.08,1.08,0,0,1-1.1-1.2V42h-.6v-.5h.6V40.4h.6v1.1h1.3V42h-1.3v2.3c0,.5.2.7.6.7a2.54,2.54,0,0,0,.7-.2Z"/><path class="cls-1" d="M81.64,45.6V45a1.68,1.68,0,0,1-1.5.7,1.24,1.24,0,0,1-1.4-1.3c0-.7.6-1.2,1.6-1.2h1.4v-.3a1,1,0,0,0-1.1-1,2.11,2.11,0,0,0-1.3.5l-.4-.4a2.52,2.52,0,0,1,1.7-.6c1,0,1.6.5,1.6,1.4v2.7h-.6Zm0-1.4v-.5h-1.3c-.7,0-1.1.2-1.1.7s.4.8,1,.8A1.57,1.57,0,0,0,81.64,44.2Z"/><path class="cls-1" d="M84.24,39.7v5.9h-.6V39.7Z"/><path class="cls-1" d="M89.24,43.7h-3.4a1.52,1.52,0,0,0,1.5,1.4,1.9,1.9,0,0,0,1.3-.5l.3.4a2.41,2.41,0,0,1-1.7.7,2.1,2.1,0,1,1,0-4.2C88.64,41.4,89.34,42.3,89.24,43.7Zm-.5-.5a1.29,1.29,0,0,0-1.4-1.3,1.43,1.43,0,0,0-1.5,1.3Z"/><path class="cls-1" d="M96.34,45.6l-2-2.6-1.1,1.2v1.4h-.6V40.1h.6v3.2l3-3.2h.7l-2.2,2.4,2.4,3.1Z"/><path class="cls-1" d="M101.74,43.5a2.1,2.1,0,1,1-2.1-2.1A2,2,0,0,1,101.74,43.5Zm-3.6,0a1.5,1.5,0,0,0,1.5,1.6,1.45,1.45,0,0,0,1.5-1.6,1.5,1.5,0,0,0-1.5-1.6A1.63,1.63,0,0,0,98.14,43.5Z"/><path class="cls-1" d="M106.64,43v2.6h-.7V43.2a1.1,1.1,0,0,0-1.2-1.2,1.43,1.43,0,0,0-1.4,1.4v2.2h-.6V41.4h.6v.9a1.7,1.7,0,0,1,1.6-.9A1.5,1.5,0,0,1,106.64,43Z"/><path class="cls-1" d="M110.74,41.4v.5l-2.6,3.2h2.7v.5h-3.4v-.5l2.6-3.2h-2.5v-.5Z"/><path class="cls-1" d="M115.34,43.7h-3.4a1.52,1.52,0,0,0,1.5,1.4,1.9,1.9,0,0,0,1.3-.5l.3.4a2.41,2.41,0,0,1-1.7.7,2.1,2.1,0,0,1,0-4.2C114.74,41.4,115.44,42.3,115.34,43.7Zm-.5-.5a1.29,1.29,0,0,0-1.4-1.3,1.43,1.43,0,0,0-1.5,1.3Z"/><path class="cls-1" d="M120.64,43.5a2,2,0,0,1-2,2.1,1.7,1.7,0,0,1-1.6-.9v2.4h-.6V41.4h.6v.9a1.7,1.7,0,0,1,1.6-.9A2,2,0,0,1,120.64,43.5Zm-.6,0a1.5,1.5,0,1,0-1.5,1.6A1.56,1.56,0,0,0,120,43.5Z"/><path class="cls-1" d="M123.74,45.3a1.61,1.61,0,0,1-.9.3,1.08,1.08,0,0,1-1.1-1.2V42h-.6v-.5h.6V40.4h.6v1.1h1.3V42h-1.3v2.3c0,.5.2.7.6.7a2.54,2.54,0,0,0,.7-.2Z"/><path class="cls-1" d="M128.14,43.7h-3.4a1.52,1.52,0,0,0,1.5,1.4,1.9,1.9,0,0,0,1.3-.5l.3.4a2.41,2.41,0,0,1-1.7.7,2.1,2.1,0,1,1,0-4.2C127.54,41.4,128.24,42.3,128.14,43.7Zm-.5-.5a1.29,1.29,0,0,0-1.4-1.3,1.43,1.43,0,0,0-1.5,1.3Z"/><path class="cls-1" d="M132.14,41v.5h1.2V42h-1.2v3.5h-.6V42H131v-.5h.5V41a1.29,1.29,0,0,1,1.3-1.4,1.61,1.61,0,0,1,.9.3l-.3.5a1.42,1.42,0,0,0-.6-.2A.71.71,0,0,0,132.14,41Z"/><path class="cls-1" d="M137.54,41.4v4.2h-.6v-.9a1.68,1.68,0,0,1-1.6,1,1.47,1.47,0,0,1-1.6-1.6V41.5h.6v2.4a1.1,1.1,0,0,0,1.2,1.2,1.34,1.34,0,0,0,1.4-1.5v-2h.6Zm-2.9-1.2a.4.4,0,1,1,.4.4A.37.37,0,0,1,134.64,40.2Zm1.3,0a.4.4,0,1,1,.4.4A.37.37,0,0,1,135.94,40.2Z"/><path class="cls-1" d="M141,41.4V42a1.39,1.39,0,0,0-1.5,1.4v2.2h-.6V41.4h.6v.9A1.55,1.55,0,0,1,141,41.4Z"/><path class="cls-1" d="M142.94,41.9c-.5,0-.8.2-.8.6,0,.9,2.3.5,2.3,1.9,0,.8-.7,1.2-1.5,1.2a2.27,2.27,0,0,1-1.6-.6l.2-.5a2.39,2.39,0,0,0,1.4.5c.5,0,.9-.2.9-.6,0-1-2.3-.5-2.3-2,0-.8.7-1.1,1.4-1.1a2.5,2.5,0,0,1,1.3.4l-.2.5A2.28,2.28,0,0,0,142.94,41.9Z"/><path class="cls-1" d="M148.34,40.1v2.5h3.3V40.1h.6v5.5h-.6V43.2h-3.3v2.4h-.6V40.1Z"/><path class="cls-1" d="M156.34,45.6V45a1.68,1.68,0,0,1-1.5.7,1.24,1.24,0,0,1-1.4-1.3c0-.7.6-1.2,1.6-1.2h1.4v-.3a1,1,0,0,0-1.1-1,2.11,2.11,0,0,0-1.3.5l-.3-.4a2.52,2.52,0,0,1,1.7-.6c1,0,1.6.5,1.6,1.4v2.7h-.7Zm0-1.4v-.5H155c-.7,0-1.1.2-1.1.7s.4.8,1,.8A1.57,1.57,0,0,0,156.34,44.2Z"/><path class="cls-1" d="M162.14,43v2.6h-.6V43.2a1.1,1.1,0,0,0-1.2-1.2,1.43,1.43,0,0,0-1.4,1.4v2.2h-.6V41.4h.6v.9a1.7,1.7,0,0,1,1.6-.9A1.47,1.47,0,0,1,162.14,43Z"/><path class="cls-1" d="M167.24,39.7v5.9h-.6v-.9a1.7,1.7,0,0,1-1.6.9,2.1,2.1,0,0,1,0-4.2,1.7,1.7,0,0,1,1.6.9V39.7Zm-.6,3.8a1.5,1.5,0,1,0-1.5,1.6A1.56,1.56,0,0,0,166.64,43.5Z"/><path class="cls-1" d="M168.64,41.4l1.2,3.5,1.2-3.5h.6l1.2,3.5,1.2-3.5h.6l-1.5,4.2h-.6l-1.2-3.4-1.2,3.4h-.6l-1.6-4.2Z"/><path class="cls-1" d="M178.84,43.7h-3.4a1.52,1.52,0,0,0,1.5,1.4,1.9,1.9,0,0,0,1.3-.5l.3.4a2.41,2.41,0,0,1-1.7.7,2.1,2.1,0,1,1,0-4.2C178.24,41.4,178.94,42.3,178.84,43.7Zm-.5-.5a1.29,1.29,0,0,0-1.4-1.3,1.43,1.43,0,0,0-1.5,1.3Z"/><path class="cls-1" d="M181.94,41.4V42a1.39,1.39,0,0,0-1.5,1.4v2.2h-.6V41.4h.6v.9A1.55,1.55,0,0,1,181.94,41.4Z"/><path class="cls-1" d="M184.24,43.5l-.9.9v1.2h-.6V39.7h.6v3.9l2.1-2.2h.7l-1.6,1.6,1.7,2.5h-.7Z"/></g></g></g></svg>