<svg xmlns="http://www.w3.org/2000/svg" viewBox="0 0 175.8 46.1"><defs><style>.cls-1{fill:#eb673a;}</style></defs><title>Element 1</title><g id="Ebene_2" data-name="Ebene 2"><g id="Ebene_1-2" data-name="Ebene 1"><g id="Ebene_2-2" data-name="Ebene 2"><g id="Ebene_1-2-2" data-name="Ebene 1-2"><path class="cls-1" d="M25.3,23.4H2.1c.3,6.5,4.8,10.8,11,10.8a11.8,11.8,0,0,0,9-3.7l1.2,1.4A13.71,13.71,0,0,1,13,36.1c-7.5,0-13-5.5-13-13.3S5.5,9.4,13,9.4C20.8,9.5,25.5,15.2,25.3,23.4Zm-1.9-1.9c-.4-6-4.3-10.1-10.4-10.1S2.7,15.5,2.2,21.5Z"/><path class="cls-1" d="M75.1,19.9V36.2H73V20.3c0-5.5-3.2-8.7-8.5-8.7-6.4.2-10.1,4.6-10.1,11.5v13H52.3V20.3c0-5.5-3.2-8.7-8.5-8.7-6.4.2-10.2,4.6-10.2,11.5v13H31.5V9.5h2.1v7c1.7-4.6,5.5-7,10.7-7.1,5.4,0,8.9,2.9,9.8,7.7,1.6-5,5.4-7.6,10.9-7.7C71.4,9.5,75.1,13.4,75.1,19.9Z"/><path class="cls-1" d="M100.6,36.2l-.1-5.3c-2.2,3.7-6,5.3-10.6,5.3-5.3,0-8.8-3.3-8.8-7.8s3.8-7.2,9.9-7.2h9.5V18.6c-.1-4.5-2.7-7.2-8-7.2-3.3,0-6.1,1.3-8.9,3.5l-1-1.6c3.2-2.3,6.2-3.8,10.3-3.8,6.3,0,9.7,3.5,9.8,9l.1,17.7Zm-.1-8.7V23.2H91.2c-5.2,0-8.1,1.8-8.1,5.2s2.7,5.9,7.1,5.9C95.1,34.3,98.9,32.1,100.5,27.5Z"/><path class="cls-1" d="M134.3,19.9V36.2h-2.1V20.3c0-5.5-3.2-8.7-8.7-8.7-6.1.2-9.9,4-10.4,10.1V36.1H111V9.5h2.1v6.8c1.8-4.4,5.6-6.8,10.9-6.9C130.5,9.5,134.3,13.4,134.3,19.9Z"/><path class="cls-1" d="M137.9,46.1a9.27,9.27,0,0,1-5.3-1.9l.9-1.8a6.92,6.92,0,0,0,4.3,1.6c2.9.1,4.5-2.1,4.5-6.3V9.5h2.1v28C144.5,43.3,141.9,46.1,137.9,46.1Zm7.4-44.3A1.8,1.8,0,1,1,143.5,0,1.81,1.81,0,0,1,145.3,1.8Z"/><path class="cls-1" d="M175.8,9.5V36.1h-2.1V29c-1.7,4.6-5.4,7.1-10.7,7.2-6.4,0-10.2-3.9-10.2-10.4V9.5h2.1V25.4c0,5.5,3.2,8.7,8.5,8.7,6.4-.2,10.2-4.6,10.2-11.5V9.6h2.2Z"/></g></g></g></g></svg>