<svg xmlns="http://www.w3.org/2000/svg" viewBox="0 0 237.04 46.1"><defs><style>.cls-1{fill:#fff;}.cls-2{isolation:isolate;}</style></defs><title>Element 5</title><g id="Ebene_2" data-name="Ebene 2"><g id="Ebene_1-2" data-name="Ebene 1"><path class="cls-1" d="M54.74,24.8,33.94,24V19.3l18.8-.7c-2.2-3.6-6-5.8-9.8-4.5C45.14-2.7,24-2.3,20.74,7.9,18,4.8,5.24,5.3,8.64,18c-9-.4-13.5,14.9-.7,18,0,0,37.2.5,37.5-.1C52.44,33.8,54.94,29.2,54.74,24.8Zm-22.8-.6a4.63,4.63,0,0,0-3.3.6,3.31,3.31,0,0,0,.3,5.2,4.92,4.92,0,0,1-.3,3.4h-6a7.39,7.39,0,0,1-.2-3.3c2.9-2.6-.1-5.1-.1-5.1V17.7a11.94,11.94,0,0,1,6.2-11.2c1.9-1.1,5.1-.9,1.7,2-8.1,7.8,1.7,10.4,1.7,10.4Z"/><g class="cls-2"><path class="cls-1" d="M86.54,23.4H63.34c.3,6.5,4.8,10.8,11,10.8a11.82,11.82,0,0,0,9-3.7l1.2,1.4a13.7,13.7,0,0,1-10.3,4.2c-7.5,0-13-5.5-13-13.3s5.5-13.4,13-13.4C82,9.5,86.74,15.2,86.54,23.4Zm-1.9-1.9c-.4-6-4.3-10.1-10.4-10.1s-10.3,4.1-10.8,10.1Z"/><path class="cls-1" d="M136.34,19.9V36.2h-2.1V20.3c0-5.5-3.2-8.7-8.5-8.7-6.4.2-10.1,4.6-10.1,11.5v13h-2.1V20.3c0-5.5-3.2-8.7-8.5-8.7-6.4.2-10.2,4.6-10.2,11.5v13h-2.1V9.5h2.1v7c1.7-4.6,5.5-7,10.7-7.1,5.4,0,8.9,2.9,9.8,7.7,1.6-5,5.4-7.6,10.9-7.7C132.64,9.5,136.34,13.4,136.34,19.9Z"/><path class="cls-1" d="M161.84,36.2l-.1-5.3c-2.2,3.7-6,5.3-10.6,5.3-5.3,0-8.8-3.3-8.8-7.8s3.8-7.2,9.9-7.2h9.5V18.6c-.1-4.5-2.7-7.2-8-7.2-3.3,0-6.1,1.3-8.9,3.5l-1-1.6c3.2-2.3,6.2-3.8,10.3-3.8,6.3,0,9.7,3.5,9.8,9l.1,17.7Zm-.1-8.7V23.2h-9.3c-5.2,0-8.1,1.8-8.1,5.2s2.7,5.9,7.1,5.9C156.34,34.3,160.14,32.1,161.74,27.5Z"/><path class="cls-1" d="M195.54,19.9V36.2h-2.1V20.3c0-5.5-3.2-8.7-8.7-8.7-6.1.2-9.9,4-10.4,10.1V36.1h-2.1V9.5h2.1v6.8c1.8-4.4,5.6-6.8,10.9-6.9C191.74,9.5,195.54,13.4,195.54,19.9Z"/><path class="cls-1" d="M199.14,46.1a9.25,9.25,0,0,1-5.3-1.9l.9-1.8A6.93,6.93,0,0,0,199,44c2.9.1,4.5-2.1,4.5-6.3V9.5h2.1v28C205.74,43.3,203.14,46.1,199.14,46.1Zm7.4-44.3a1.8,1.8,0,1,1-3.6,0,1.8,1.8,0,1,1,3.6,0Z"/><path class="cls-1" d="M237,9.5V36.1h-2.1V29c-1.7,4.6-5.4,7.1-10.7,7.2-6.4,0-10.2-3.9-10.2-10.4V9.5h2.1V25.4c0,5.5,3.2,8.7,8.5,8.7,6.4-.2,10.2-4.6,10.2-11.5V9.6H237Z"/></g></g></g></svg>